<svg width="900" height="900" viewBox="0 0 900 900" fill="none" xmlns="http://www.w3.org/2000/svg">
<rect width="900" height="900" fill="white"/>
<path d="M450 750C339.543 750 250 660.457 250 550C250 512.394 260.381 477.213 278.432 447.164L450 150V750Z" fill="#00BCFF"/>
<rect width="16" height="31" transform="translate(450 150)" fill="#00BCFF"/>
<rect width="39" height="31" transform="translate(450 190.643)" fill="#00BCFF"/>
<rect width="63" height="31" transform="translate(450 231.286)" fill="#00BCFF"/>
<rect width="86" height="31" transform="translate(450 271.928)" fill="#00BCFF"/>
<rect width="108" height="31" transform="translate(450 312.572)" fill="#00BCFF"/>
<rect width="131" height="31" transform="translate(450 353.214)" fill="#00BCFF"/>
<rect width="161" height="31" transform="translate(450 393.857)" fill="#00BCFF"/>
<rect width="183" height="31" transform="translate(450 434.5)" fill="#00BCFF"/>
<rect width="200" height="31" transform="translate(450 475.143)" fill="#00BCFF"/>
<rect width="200" height="31" transform="translate(450 515.786)" fill="#00BCFF"/>
<rect width="200" height="31" transform="translate(450 556.428)" fill="#00BCFF"/>
<rect width="189" height="31" transform="translate(450 597.071)" fill="#00BCFF"/>
<rect width="172" height="31" transform="translate(450 637.714)" fill="#00BCFF"/>
<rect width="131" height="31" transform="translate(450 678.357)" fill="#00BCFF"/>
<rect width="75" height="31" transform="translate(450 719)" fill="#00BCFF"/>
</svg>
